<?xml version="1.0" standalone="no"?>
<!DOCTYPE svg PUBLIC "-//W3C//DTD SVG 20010904//EN"
 "http://www.w3.org/TR/2001/REC-SVG-20010904/DTD/svg10.dtd">
<svg version="1.0" xmlns="http://www.w3.org/2000/svg"
 width="246.000000pt" height="205.000000pt" viewBox="0 0 246.000000 205.000000"
 preserveAspectRatio="xMidYMid meet">
<metadata>
Created by potrace 1.15, written by Peter Selinger 2001-2017
</metadata>
<g transform="translate(0.000000,205.000000) scale(0.100000,-0.100000)"
fill="#3b83bd" stroke="none">
<path d="M747 2035 c-50 -17 -85 -50 -108 -100 -15 -33 -19 -66 -19 -187 l0
-146 -222 -4 c-205 -3 -226 -5 -263 -25 -22 -11 -52 -34 -67 -50 -59 -62 -58
-45 -58 -728 0 -602 1 -627 20 -664 26 -53 92 -107 145 -120 62 -15 2048 -15
2110 0 53 13 119 67 145 120 19 37 20 62 20 664 0 683 1 666 -58 728 -15 16
-45 39 -67 50 -37 20 -58 22 -257 25 l-218 4 0 149 c0 103 -4 160 -14 182 -17
43 -76 93 -123 106 -61 17 -918 14 -966 -4z m984 -113 l29 -32 0 -145 0 -145
-525 0 -525 0 0 135 c0 104 4 143 16 166 30 58 35 59 527 56 l449 -2 29 -33z
m570 -443 c61 -43 59 -21 59 -681 0 -580 -1 -604 -20 -635 -10 -18 -31 -40
-47 -50 -26 -17 -81 -18 -1063 -18 -982 0 -1037 1 -1063 18 -16 10 -37 32 -47
50 -19 31 -20 55 -20 635 0 657 -2 637 57 681 28 20 32 20 1071 21 1041 0
1044 0 1073 -21z"/>
</g>
</svg>
