<?xml version="1.0" standalone="no"?>
<!DOCTYPE svg PUBLIC "-//W3C//DTD SVG 20010904//EN"
 "http://www.w3.org/TR/2001/REC-SVG-20010904/DTD/svg10.dtd">
<svg version="1.0" xmlns="http://www.w3.org/2000/svg"
 width="256.000000pt" height="197.000000pt" viewBox="0 0 256.000000 197.000000"
 preserveAspectRatio="xMidYMid meet">
<metadata>
Created by potrace 1.15, written by Peter Selinger 2001-2017
</metadata>
<g transform="translate(0.000000,197.000000) scale(0.100000,-0.100000)"
fill="#ff0000" stroke="none">
<path d="M1215 1963 c-506 -29 -915 -464 -915 -973 0 -589 505 -1043 1089
-979 346 38 660 270 791 586 60 144 73 213 73 383 0 137 -3 167 -26 255 -122
456 -538 755 -1012 728z m130 -330 c12 -41 19 -104 22 -215 3 -87 8 -158 12
-158 4 0 26 38 50 85 58 116 78 113 46 -5 -18 -66 -21 -150 -6 -178 6 -11 24
-23 41 -27 27 -6 35 -1 86 55 31 33 59 59 61 56 3 -3 -5 -33 -17 -68 -33 -93
-38 -202 -12 -261 12 -26 28 -47 36 -47 8 0 30 21 48 48 l33 47 6 -120 c3 -66
11 -133 17 -148 26 -61 19 -73 -118 -208 -72 -70 -139 -131 -151 -134 -17 -6
-79 10 -79 20 0 1 7 20 16 41 24 56 15 176 -17 240 -13 27 -28 48 -33 47 -5
-1 -15 -19 -22 -39 -14 -40 -30 -56 -54 -51 -14 2 -24 30 -35 98 -5 35 -36 79
-56 79 -5 0 -16 -15 -24 -33 -17 -41 -28 -50 -83 -66 -24 -7 -46 -19 -49 -28
-9 -22 19 -69 98 -165 77 -94 85 -122 38 -132 -122 -24 -247 18 -300 103 -36
56 -57 124 -68 222 -5 41 -12 82 -16 93 -7 17 -6 17 22 3 16 -9 35 -23 42 -31
8 -9 17 -16 22 -16 21 0 6 62 -31 133 -51 96 -52 136 -8 219 l31 59 13 -28 c7
-15 26 -44 43 -63 l29 -35 6 25 c3 14 10 66 17 115 15 115 43 206 75 245 39
46 51 40 46 -24 -2 -29 0 -56 6 -59 14 -10 34 17 101 136 42 74 63 123 67 155
11 92 24 96 49 15z m525 -1333 c0 -20 -7 -20 -590 -20 -583 0 -590 0 -590 20
0 20 7 20 590 20 583 0 590 0 590 -20z"/>
</g>
</svg>
