<?xml version="1.0" standalone="no"?>
<!DOCTYPE svg PUBLIC "-//W3C//DTD SVG 20010904//EN"
 "http://www.w3.org/TR/2001/REC-SVG-20010904/DTD/svg10.dtd">
<svg version="1.0" xmlns="http://www.w3.org/2000/svg"
 width="1280.000000pt" height="838.000000pt" viewBox="0 0 1280.000000 838.000000"
 preserveAspectRatio="xMidYMid meet">
<g transform="translate(0.000000,838.000000) scale(0.100000,-0.100000)"
fill="#efb810" stroke="none">
<path d="M830 8341 c-52 -20 -122 -52 -155 -71 l-60 -35 160 -8 c88 -4 198 -6
245 -5 77 3 85 5 85 23 0 13 -23 36 -65 67 -36 26 -70 52 -77 58 -17 14 -28
12 -133 -29z"/>
<path d="M10375 8272 c-44 -6 -54 -18 -102 -119 -36 -77 -43 -103 -43 -153 0
-59 0 -59 28 -55 95 16 311 59 330 66 12 5 22 16 22 25 0 24 -85 197 -106 215
-21 18 -82 28 -129 21z"/>
<path d="M540 8127 c-7 -26 -10 -61 -6 -78 7 -36 -11 -600 -24 -757 -4 -57
-13 -109 -20 -117 -7 -9 -12 -81 -13 -217 l-2 -203 518 -11 c285 -7 568 -15
630 -18 242 -14 2182 -46 4212 -70 677 -9 1339 -18 1472 -21 l243 -6 -6 63
c-8 93 -32 221 -59 323 -33 124 -65 286 -65 329 0 43 23 58 83 54 l41 -3 22
-115 c12 -63 39 -180 58 -260 20 -80 44 -199 52 -265 21 -151 19 -145 49 -145
23 0 25 3 25 49 0 67 -22 184 -75 408 -25 104 -48 217 -51 250 l-7 60 33 12
c74 25 92 10 109 -90 7 -41 33 -153 57 -250 49 -197 74 -331 74 -395 0 -39 2
-43 31 -49 22 -5 36 -3 47 8 13 14 13 27 -2 129 -9 62 -36 194 -60 293 -61
253 -72 323 -53 342 20 21 90 29 104 12 6 -8 19 -54 28 -104 9 -49 36 -169 60
-265 45 -179 75 -330 75 -381 0 -27 3 -29 39 -29 22 0 42 4 46 10 8 13 -31
233 -66 374 -43 169 -69 302 -69 347 0 33 4 41 26 49 66 25 96 3 108 -80 4
-25 29 -137 56 -250 27 -113 54 -240 61 -283 13 -84 29 -104 75 -93 17 5 24
13 24 30 0 33 -31 180 -79 373 -22 89 -43 188 -47 220 -7 67 2 80 58 90 48 7
64 -13 78 -99 7 -40 32 -153 56 -252 24 -98 49 -215 55 -260 7 -44 15 -84 18
-87 10 -12 65 -19 78 -11 15 10 -4 121 -57 332 -22 87 -47 199 -56 250 -18
107 -14 118 53 127 49 6 60 -6 74 -83 5 -33 30 -142 54 -244 24 -102 51 -227
59 -279 9 -52 18 -96 20 -99 3 -2 21 -1 41 2 42 8 43 -4 -11 231 -92 397 -98
426 -80 450 6 9 30 19 53 22 35 5 43 2 56 -18 8 -13 18 -46 22 -74 3 -27 26
-131 50 -230 40 -164 53 -228 70 -337 6 -37 7 -38 51 -38 l46 0 -7 53 c-4 28
-27 131 -50 227 -48 194 -75 328 -75 370 0 22 6 30 31 39 68 24 93 8 103 -66
4 -26 29 -140 56 -253 27 -113 54 -241 61 -285 6 -44 14 -83 18 -87 10 -11 75
-19 89 -10 15 10 -8 140 -68 382 -54 221 -65 289 -47 307 21 21 90 28 104 11
6 -7 23 -67 37 -133 13 -66 40 -187 59 -270 20 -82 43 -195 53 -249 11 -67 23
-105 36 -118 34 -34 43 -18 42 78 -1 88 -13 150 -69 349 -38 134 -68 315 -54
331 17 20 89 29 105 12 8 -8 21 -50 28 -93 8 -44 37 -170 64 -280 50 -200 72
-313 72 -378 l0 -34 58 -6 c93 -9 2221 -42 2228 -34 11 11 -40 183 -98 330
-38 98 -58 136 -85 160 -19 17 -59 73 -89 124 -96 164 -200 290 -428 521 -122
123 -242 239 -267 258 l-47 34 -131 0 c-115 0 -135 -3 -159 -19 -32 -24 -109
-44 -267 -71 -193 -33 -214 -28 -224 53 l-6 42 -60 7 c-58 6 -589 16 -2072 39
-503 7 -697 7 -712 -1 -24 -13 -26 -37 -6 -64 18 -23 19 -96 5 -241 -14 -138
-31 -184 -90 -239 l-50 -47 -617 3 -618 3 -74 49 c-40 27 -90 52 -110 57 -43
9 -753 24 -2231 44 -1117 16 -1694 30 -1767 44 -23 4 -64 22 -91 39 -76 49
-293 277 -331 347 -61 115 -49 109 -218 117 -81 3 -241 10 -354 14 l-206 7
-13 -46z m9975 -1187 c25 -21 38 -78 25 -110 -38 -91 -159 -88 -190 4 -10 31
-9 41 7 69 35 60 110 77 158 37z"/>
<path d="M84 8016 c-27 -19 -48 -95 -70 -251 -18 -129 -15 -233 10 -387 17
-107 42 -159 82 -171 27 -8 323 -2 331 7 7 6 22 381 25 611 l3 200 -180 3
c-146 2 -184 0 -201 -12z"/>
<path d="M1478 7952 c87 -97 192 -196 230 -216 17 -9 65 -21 105 -26 69 -9
992 -26 2727 -50 443 -7 904 -15 1025 -19 l220 -7 78 -49 c74 -46 82 -49 175
-56 53 -4 327 -8 609 -9 l512 0 29 36 c44 53 57 111 57 259 l0 130 -185 2
c-268 3 -1723 22 -2515 33 -374 5 -844 14 -1045 19 -201 6 -751 13 -1223 16
l-859 5 60 -68z"/>
<path d="M11630 7843 c-156 -61 -240 -68 -345 -28 -36 13 -65 22 -65 19 0 -3
73 -81 163 -172 173 -178 264 -291 345 -430 84 -144 73 -144 120 -2 99 300
119 394 101 465 -17 66 -59 118 -120 149 -66 33 -115 33 -199 -1z m201 -92
c35 -35 39 -44 39 -90 0 -65 -20 -104 -64 -125 -95 -45 -199 17 -199 118 0 82
53 135 137 136 43 0 53 -4 87 -39z"/>
<path d="M494 6665 c-4 -10 -8 -142 -8 -294 -1 -336 1 -346 86 -356 84 -9 654
-23 746 -17 l82 5 0 306 c0 168 -3 316 -6 328 -3 12 -16 24 -27 26 -12 3 -212
9 -444 13 -400 7 -423 6 -429 -11z"/>
<path d="M1470 6463 l0 -200 383 -6 c210 -4 706 -7 1102 -8 396 -1 837 -4 980
-8 l260 -7 100 -38 c241 -91 510 -242 746 -417 l115 -86 264 -7 265 -7 -44 37
c-80 69 -93 149 -37 233 31 45 33 54 25 88 -5 21 -9 116 -9 211 0 165 1 175
25 222 15 29 43 63 66 80 39 28 40 29 17 35 -12 3 -538 12 -1168 20 -1267 17
-2651 41 -2917 51 l-173 6 0 -199z"/>
<path d="M8665 6619 c-148 -4 -284 -7 -301 -8 -18 0 -51 -16 -83 -40 l-52 -39
-236 5 c-225 6 -445 -4 -587 -27 -115 -18 -172 -85 -183 -218 -11 -134 28
-211 124 -243 38 -12 458 -10 1097 8 l249 6 71 65 c39 36 95 76 124 90 62 28
181 41 388 42 72 0 146 3 163 6 l31 7 0 131 c0 72 -4 136 -8 143 -4 7 -34 24
-66 39 -46 21 -78 27 -145 30 -192 8 -329 9 -586 3z m672 -195 c3 -9 2 -24 -4
-33 -8 -13 -36 -17 -149 -21 -76 -3 -145 -3 -152 -1 -8 2 -12 15 -10 29 4 35
26 40 181 41 110 1 129 -1 134 -15z"/>
<path d="M6392 6439 c0 -93 -5 -170 -16 -219 -21 -99 -76 -210 -121 -245 -54
-41 -171 -91 -257 -110 -73 -16 -78 -18 -88 -51 -14 -41 -54 -90 -92 -114 -27
-16 -14 -17 312 -24 370 -7 650 0 655 18 2 6 8 139 13 296 9 305 15 342 60
348 29 4 36 -17 21 -65 -8 -24 -14 -142 -18 -325 l-6 -288 -28 -27 -28 -28
-367 2 c-202 1 -575 5 -830 9 l-462 6 -140 105 c-234 175 -479 313 -705 398
l-100 38 -295 8 c-162 4 -776 8 -1364 8 l-1069 1 6 -85 c5 -77 4 -86 -14 -98
-18 -13 -19 -17 -5 -82 8 -37 20 -71 26 -75 15 -10 303 -17 1130 -30 895 -15
1438 -28 1560 -40 329 -32 609 -122 795 -255 126 -90 302 -299 377 -450 47
-93 99 -235 108 -293 4 -31 11 -207 15 -391 4 -183 10 -344 15 -356 10 -26 27
-34 339 -141 398 -138 631 -203 867 -241 86 -14 168 -18 389 -18 312 1 569 24
790 71 311 66 408 75 524 50 98 -21 283 -111 350 -172 119 -107 195 -252 242
-459 17 -77 69 -282 115 -455 132 -491 270 -1054 290 -1180 16 -99 19 -177 20
-555 0 -242 1 -446 2 -452 2 -10 261 -13 1240 -15 l1237 -3 3 -32 c3 -28 0
-33 -24 -39 -31 -8 -2403 4 -2450 12 -28 5 -32 3 -37 -24 -9 -44 9 -283 23
-314 19 -40 81 -61 166 -55 751 48 2077 149 2207 168 83 12 124 35 129 72 6
45 32 29 65 -42 23 -49 46 -81 78 -106 43 -36 170 -95 204 -95 9 0 53 12 98
26 114 36 165 82 193 171 11 36 20 87 20 115 0 66 11 84 59 92 22 3 43 10 46
16 12 20 55 247 71 379 31 254 8 604 -55 855 -39 152 -247 716 -644 1746 -338
879 -420 1107 -452 1258 -53 255 56 547 287 768 65 62 99 85 182 124 137 66
233 88 428 101 202 13 232 24 283 103 19 30 35 60 35 66 0 23 -50 107 -82 137
-27 26 -46 34 -103 43 -135 21 -233 58 -325 121 -106 72 -253 243 -280 325 -8
22 -19 36 -33 38 -31 7 -1053 25 -1804 33 l-633 6 0 -122 c0 -131 -13 -184
-48 -195 -10 -4 -134 -10 -273 -15 -189 -7 -264 -13 -291 -24 -20 -8 -70 -47
-112 -87 l-75 -72 -173 -9 c-262 -13 -791 -29 -988 -29 -308 0 -393 45 -421
225 -22 140 28 278 125 343 l48 32 -253 0 c-140 0 -351 3 -470 7 l-216 6 -1
-144z m3695 -530 c49 -24 84 -62 119 -130 l24 -49 89 0 c83 0 91 -2 132 -31
24 -18 76 -62 114 -98 39 -36 143 -128 232 -203 143 -121 293 -276 330 -342 8
-14 12 -71 13 -163 0 -78 6 -174 14 -215 33 -171 107 -386 239 -693 49 -115
136 -329 192 -475 56 -146 182 -458 280 -695 455 -1101 559 -1458 526 -1819
-7 -76 -14 -114 -26 -125 -19 -19 -236 -25 -1360 -40 -780 -9 -733 -12 -757
49 -22 57 -188 685 -598 2254 l-172 658 40 87 c54 113 65 159 66 261 1 166
-61 282 -204 385 -46 33 -87 67 -91 75 -15 27 -250 983 -256 1041 -4 42 -2 58
8 65 8 5 158 11 334 14 l320 5 30 57 c49 92 90 127 172 148 53 13 140 3 190
-21z m-2647 -32 c13 -7 35 -28 48 -47 19 -28 23 -44 19 -82 -2 -26 -11 -58
-20 -71 -22 -35 -96 -61 -143 -52 -110 20 -138 186 -42 245 37 23 101 26 138
7z m-453 -407 c151 -9 196 -23 213 -63 5 -12 19 -74 31 -137 18 -96 21 -140
17 -270 -4 -142 -7 -163 -38 -252 -81 -242 -230 -421 -468 -560 -113 -66 -132
-86 -132 -135 0 -28 3 -33 24 -33 33 0 154 44 241 87 242 121 381 267 516 543
67 136 68 138 128 174 56 34 60 40 67 83 4 27 0 96 -10 168 -9 68 -16 132 -16
143 0 14 21 37 63 68 34 26 89 74 123 106 l61 59 104 -21 c128 -26 242 -63
290 -95 60 -39 218 -195 265 -261 91 -127 136 -280 137 -459 0 -196 -58 -343
-202 -514 -140 -167 -401 -271 -861 -343 -195 -30 -611 -33 -790 -5 -220 35
-509 113 -638 173 -174 80 -332 235 -421 413 -54 106 -72 196 -73 356 0 118 3
151 22 210 43 136 95 219 212 341 l78 82 143 55 c161 63 205 76 297 87 94 11
451 11 617 0z m2267 -1198 c90 -52 107 -176 33 -249 -63 -63 -159 -63 -223 1
-64 64 -64 155 1 221 56 55 122 65 189 27z m3151 -3888 c67 -72 47 -200 -42
-273 -21 -17 -53 -34 -71 -37 -66 -13 -154 33 -187 97 -30 57 -11 150 41 205
l31 34 102 0 c97 0 103 -1 126 -26z"/>
<path d="M9123 5643 c-13 -2 -23 -9 -23 -15 0 -13 222 -887 242 -958 12 -38
25 -53 91 -103 154 -116 217 -243 217 -440 0 -90 -17 -158 -69 -272 l-32 -71
311 -1194 c171 -657 339 -1301 372 -1430 34 -129 66 -241 71 -247 19 -25 1984
-10 2009 15 17 17 23 257 9 352 -49 318 -165 656 -530 1541 -93 228 -219 540
-280 695 -61 155 -143 357 -182 450 -121 287 -205 527 -234 665 -8 37 -17 140
-21 229 l-7 162 -42 57 c-61 82 -164 183 -335 326 -84 70 -180 154 -215 186
l-63 59 -89 0 -89 0 -11 -43 c-37 -136 -205 -229 -334 -185 -87 29 -170 117
-185 195 l-6 33 -277 -1 c-152 -1 -286 -4 -298 -6z m1558 -1309 c194 -61 361
-239 414 -440 19 -75 19 -220 -1 -297 -44 -170 -166 -321 -327 -403 -93 -48
-165 -64 -279 -64 -169 0 -315 63 -438 190 -238 245 -233 620 10 861 171 169
395 224 621 153z m449 -2685 c95 -43 143 -116 144 -219 1 -137 -101 -240 -239
-240 -66 0 -108 16 -159 60 -130 115 -104 310 53 392 66 34 135 37 201 7z"/>
<path d="M5925 6540 c-162 -15 -214 -45 -234 -138 -12 -59 -14 -166 -4 -289
l6 -82 46 -7 c45 -6 131 -47 131 -63 0 -4 9 -17 19 -28 l20 -21 81 19 c152 36
241 93 285 183 21 43 28 77 35 172 5 66 10 152 10 192 l0 72 -157 -1 c-87 -1
-194 -5 -238 -9z"/>
</g>
</svg>
